<svg width="13" height="13" viewBox="0 0 13 13" fill="none" xmlns="http://www.w3.org/2000/svg">
<g id="2 1035" clip-path="url(#clip0_1624_2098)">
<g id="Group">
<g id="Group_2">
<g id="Group_3">
<path id="Vector" d="M3.57655 7.0906C4.41811 7.0906 5.09743 6.41127 5.09743 5.56971C5.09743 4.72816 4.41811 4.04883 3.57655 4.04883C2.73499 4.04883 2.05566 4.72816 2.05566 5.56971C2.05566 6.41127 2.73499 7.0906 3.57655 7.0906ZM3.57655 5.06275C3.85538 5.06275 4.08351 5.29088 4.08351 5.56971C4.08351 5.84854 3.85538 6.07668 3.57655 6.07668C3.29772 6.07668 3.06959 5.84854 3.06959 5.56971C3.06959 5.29088 3.29772 5.06275 3.57655 5.06275Z" fill="#656565"/>
<path id="Vector_2" d="M9.66047 3.54224H5.60477V7.59794H1.54908V2.52832H0.535156V10.1327H1.54908V8.61186H10.6744V10.1327H11.6883V5.57009C11.6883 4.44971 10.7808 3.54224 9.66047 3.54224ZM10.6744 7.59794H6.6187V4.55617H9.66047C10.2181 4.55617 10.6744 5.01243 10.6744 5.57009V7.59794Z" fill="#656565"/>
</g>
</g>
</g>
</g>
<defs>
<clipPath id="clip0_1624_2098">
<rect width="12.1671" height="12.1671" fill="white" transform="translate(0.0283203 -0.00683594)"/>
</clipPath>
</defs>
</svg>
