<svg width="13" height="13" viewBox="0 0 13 13" fill="none" xmlns="http://www.w3.org/2000/svg">
<g id="4 10">
<path id="Vector" d="M2.81636 9.35553H3.32332C3.46527 9.35553 3.5768 9.244 3.5768 9.10205V8.59509H8.64642V9.10205C8.64642 9.244 8.75795 9.35553 8.8999 9.35553H9.40686C9.54881 9.35553 9.66034 9.244 9.66034 9.10205V6.06028L8.83906 3.67249C8.76302 3.43929 8.53996 3.27199 8.28141 3.27199H3.94181C3.68326 3.27199 3.46527 3.43929 3.38416 3.67249L2.56288 6.06028V9.10205C2.56288 9.244 2.67441 9.35553 2.81636 9.35553ZM3.32332 6.18702H8.8999V7.83464H3.32332V6.18702ZM4.05841 4.03243H8.1648L8.67177 5.42658H3.55145L4.05841 4.03243ZM8.13946 7.0742C8.13946 7.35303 7.91132 7.58116 7.63249 7.58116C7.35367 7.58116 7.12553 7.35303 7.12553 7.0742C7.12553 6.79537 7.35367 6.56724 7.63249 6.56724C7.91132 6.56724 8.13946 6.79537 8.13946 7.0742ZM5.09769 7.0742C5.09769 7.35303 4.86955 7.58116 4.59072 7.58116C4.3119 7.58116 4.08376 7.35303 4.08376 7.0742C4.08376 6.79537 4.3119 6.56724 4.59072 6.56724C4.86955 6.56724 5.09769 6.79537 5.09769 7.0742ZM10.1673 1.24414H2.05592C1.49826 1.24414 1.04199 1.70041 1.04199 2.25806V10.3695C1.04199 10.9271 1.49826 11.3834 2.05592 11.3834H10.1673C10.725 11.3834 11.1812 10.9271 11.1812 10.3695V2.25806C11.1812 1.70041 10.725 1.24414 10.1673 1.24414ZM10.1673 10.3695H2.05592V2.25806H10.1673V10.3695Z" fill="#656565"/>
</g>
</svg>
