<svg width="13" height="13" viewBox="0 0 13 13" fill="none" xmlns="http://www.w3.org/2000/svg">
<g id="2 1036">
<path id="Vector" d="M2.13086 9.63873H10.2422V10.6527H2.13086V9.63873ZM10.2422 1.52734H2.13086V6.59696C2.13086 7.71735 3.03832 8.62481 4.15871 8.62481H7.20048C8.32086 8.62481 9.22832 7.71735 9.22832 6.59696V5.07608H10.2422C10.5112 5.07608 10.7691 4.96925 10.9592 4.7791C11.1493 4.58896 11.2562 4.33106 11.2562 4.06215V2.54127C11.2562 1.97854 10.805 1.52734 10.2422 1.52734ZM8.2144 6.59696C8.2144 7.15462 7.75814 7.61089 7.20048 7.61089H4.15871C3.60105 7.61089 3.14478 7.15462 3.14478 6.59696V2.54127H8.2144V6.59696ZM10.2422 4.06215H9.22832V2.54127H10.2422V4.06215Z" fill="#656565"/>
</g>
</svg>
