<svg width="11" height="11" viewBox="0 0 11 11" fill="none" xmlns="http://www.w3.org/2000/svg">
<path id="Vector" d="M10.2672 4.82047H8.15313L9.79569 3.17791L9.08087 2.45803L6.71843 4.82047H5.70451V3.80654L8.06695 1.4441L7.34706 0.729287L5.70451 2.37184V0.257812H4.69059V2.37184L3.04803 0.729287L2.32814 1.4441L4.69059 3.80654V4.82047H3.67666L1.31422 2.45803L0.599404 3.17791L2.24196 4.82047H0.12793V5.83439H2.24196L0.599404 7.47695L1.31422 8.19683L3.67666 5.83439H4.69059V6.84832L2.32814 9.21076L3.04803 9.92557L4.69059 8.28302V10.397H5.70451V8.28302L7.34706 9.92557L8.06695 9.21076L5.70451 6.84832V5.83439H6.71843L9.08087 8.19683L9.79569 7.47695L8.15313 5.83439H10.2672V4.82047Z" fill="#656565"/>
</svg>
