<svg width="13" height="13" viewBox="0 0 13 13" fill="none" xmlns="http://www.w3.org/2000/svg">
<g id="1 2981" clip-path="url(#clip0_1624_2120)">
<path id="Vector" d="M0.942383 4.57064L1.95631 5.58456C4.4759 3.06496 8.56202 3.06496 11.0816 5.58456L12.0955 4.57064C9.01828 1.49338 4.02471 1.49338 0.942383 4.57064ZM4.99808 8.62633L6.51896 10.1472L8.03984 8.62633C7.84031 8.42627 7.60326 8.26753 7.34228 8.15923C7.0813 8.05092 6.80152 7.99517 6.51896 7.99517C6.2364 7.99517 5.95662 8.05092 5.69564 8.15923C5.43466 8.26753 5.19761 8.42627 4.99808 8.62633ZM2.97023 6.59849L3.98415 7.61241C4.65662 6.9405 5.56834 6.56307 6.51896 6.56307C7.46958 6.56307 8.3813 6.9405 9.05377 7.61241L10.0677 6.59849C8.11082 4.64161 4.93217 4.64161 2.97023 6.59849Z" fill="#656565"/>
</g>
<defs>
<clipPath id="clip0_1624_2120">
<rect width="12.1671" height="12.1671" fill="white" transform="translate(0.435547 0.0078125)"/>
</clipPath>
</defs>
</svg>
