<?xml version="1.0" encoding="utf-8"?>
<!-- Generator: Adobe Illustrator 23.0.5, SVG Export Plug-In . SVG Version: 6.00 Build 0)  -->
<svg version="1.1" id="Layer_1" xmlns="http://www.w3.org/2000/svg" xmlns:xlink="http://www.w3.org/1999/xlink" x="0px" y="0px"
	 viewBox="0 0 20 17" style="enable-background:new 0 0 20 17;" xml:space="preserve">
<style type="text/css">
	.st0{fill:#F6AA21;}
</style>
<g>
	<path class="st0" d="M19.1,10.1c-0.4-0.8-0.9-1.5-1.2-2.2c-0.4-0.9-1.2-1.4-2.2-1.6l-0.1-0.1c0-0.2,0-0.3,0-0.5c0.4,0,0.9,0,1.3,0
		s0.7-0.3,0.7-0.6c0-0.3-0.3-0.6-0.7-0.6c-0.2,0-0.3,0-0.4,0c0-0.1,0-0.2,0-0.3c0-1,0-2.1,0-3.1c0-0.4-0.3-0.7-0.8-0.7c-1,0-2,0-3,0
		c-0.5,0-0.8,0.3-0.8,0.8c0,0.3,0,0.6,0,1c-0.1,0-0.2,0-0.3,0c-1.1,0-2.2,0-3.2,0C7.9,2,7.7,2.2,7.7,2.5c0,0.5,0,1,0,1.5
		c0,0.1,0,0.2,0,0.3c-0.2,0-0.3,0-0.5,0C7.1,4.4,6.9,4.4,6.8,4.4C6.6,4.4,6.4,4.8,6.4,5S6.6,5.6,7,5.6c0.3,0,0.7,0,1,0
		c0,0.1,0,0.3,0,0.3c0.1,0.2,0,0.3-0.2,0.3C7,6.4,6.3,6.8,5.7,7.5C5,8.2,4.2,9,3.7,9.9c-0.2,0.1-0.3,0.2-0.4,0.2
		c-1.5,0-2.6,1.1-2.6,2.4c0,0.5,0,1,0,1.6c0,0.9,0.5,1.6,1.5,1.7c0.1,0.1,0.2,0.1,0.3,0.1c-0.3-1.6,0.8-2.9,2.4-2.9
		c0.7-0.1,1.4,0.2,1.9,0.6c0.7,0.6,1,1.4,0.8,2.3c1.7,0,3.4,0,5.1,0c-0.3-1.8,1.1-3,2.4-3c0.7,0,1.3,0.2,1.8,0.6
		c0.7,0.6,1,1.4,0.9,2.3c1-0.3,1.6-1,1.6-2c0-1,0-1.8,0-2.8C19.4,10.7,19.3,10.3,19.1,10.1z M9.4,5.6c1.6,0,3.1,0,4.8,0
		c0,0.2,0,0.3,0,0.5c-1.6,0-3.1,0-4.8,0C9.4,5.9,9.4,5.7,9.4,5.6z M10.5,10c-1.8,0-3.6,0-5.4,0c0.6-0.6,1.2-1.3,1.7-1.9
		c0.4-0.4,1-0.7,1.7-0.7c0.7,0,1.3,0,2,0C10.5,8.2,10.5,9.1,10.5,10z M11.9,10c0-0.9,0-1.7-0.1-2.7c0.1,0,0.2,0,0.3,0c1,0,2,0,2.9,0
		c0.7,0,1.1,0.3,1.5,0.9c0.3,0.6,0.6,1.1,0.9,1.6c0,0.1,0.1,0.1,0.1,0.2C15.6,10,13.8,10,11.9,10z"/>
	<path class="st0" d="M4.8,13.7c-1,0-1.6,0.7-1.6,1.6s0.8,1.6,1.6,1.6c1,0,1.6-0.7,1.6-1.6S5.8,13.7,4.8,13.7z"/>
	<path class="st0" d="M15,13.7c-0.9,0-1.6,0.7-1.6,1.6c0,0.9,0.8,1.6,1.6,1.6c1,0,1.6-0.7,1.6-1.6S15.9,13.7,15,13.7z"/>
</g>
</svg>
