<?xml version="1.0" encoding="utf-8"?>
<!-- Generator: Adobe Illustrator 23.0.5, SVG Export Plug-In . SVG Version: 6.00 Build 0)  -->
<svg version="1.1" id="Layer_1" xmlns="http://www.w3.org/2000/svg" xmlns:xlink="http://www.w3.org/1999/xlink" x="0px" y="0px"
	 viewBox="0 0 16 17" style="enable-background:new 0 0 16 17;" xml:space="preserve">
<style type="text/css">
	.st0{fill:#F6AA21;}
</style>
<g>
	<path class="st0" d="M15.4,1.7h-0.8v0h-0.3h-3.4V1.1c0-0.5-0.4-0.9-0.9-0.9H6.1c-0.5,0-0.9,0.4-0.9,0.9v0.6H2.1H1.5H0.6
		c-0.3,0-0.5,0.3-0.5,0.6v2.4c0,0.8,0.6,1.6,1.4,1.7h0.3h0.3h3.3V5.8h2.2v0.7h0.9V5.8h2.2v0.7h3.5c0.1,0,0.2,0,0.3,0v0
		c0.8-0.2,1.4-0.9,1.4-1.7V2.3C15.9,2,15.7,1.7,15.4,1.7z M6.4,1.4c0-0.1,0.1-0.2,0.2-0.2h2.7c0.1,0.1,0.2,0.2,0.2,0.2v0.3
		c0,0-0.1,0.1-0.2,0.1H6.6c-0.1,0-0.2-0.1-0.2-0.2V1.4z"/>
	<path class="st0" d="M14.8,7.3h-0.3V6.9h-3.8v0.4v1.2c0,0.5-0.5,1.1-1.1,1.1S8.5,9.1,8.5,8.5V7.3V6.9H7.6v0.4v1.2
		C7.6,9,7,9.5,6.5,9.5c-0.6,0-1.2-0.4-1.2-1.1V7.3V6.9H1.5v0.4H1.1c-0.5,0-1.1,0.5-1.1,1.1v4.3c0,0.5,0.5,1.1,1.1,1.1h0.3v0.1V15
		c0,0.9,0.8,1.8,1.8,1.8h9.5c0.9,0,1.7-0.7,1.7-1.8v-1.2h0.1h0.2c0.5,0,1.1-0.4,1.2-1.1V8.4C15.9,7.9,15.5,7.3,14.8,7.3z"/>
</g>
</svg>
